<?xml version="1.0" encoding="UTF-8"?>
<svg version="1.1" xmlns="http://www.w3.org/2000/svg" width="512" height="512">
<path d="M0 0 C7.02509001 4.1612846 11.89481398 9.79705426 14.0625 17.72265625 C15.60614396 25.75787436 14.29798945 32.72143233 10.5 40 C8.37829108 42.62146905 6.10157044 44.85881983 3.5 47 C4.53898437 47.556875 5.57796875 48.11375 6.6484375 48.6875 C14.89437327 53.1724097 22.40775453 57.79272716 29.5 64 C30.24378906 64.60070312 30.98757812 65.20140625 31.75390625 65.8203125 C43.91931856 75.93347265 51.27490952 89.21000641 58.5 103 C58.96664062 103.89041992 59.43328125 104.78083984 59.9140625 105.69824219 C61.91558916 109.52602813 63.91170529 113.35656134 65.90014648 117.19116211 C69.81121502 124.72375183 73.82402608 132.19503876 77.92041016 139.62841797 C80.62330209 144.53627751 83.27553116 149.4638951 85.86328125 154.43359375 C86.42861572 155.50810791 86.9939502 156.58262207 87.57641602 157.68969727 C88.65776301 159.74780583 89.72807818 161.81176556 90.78491211 163.88256836 C95.50142847 172.80305215 101.17058671 179.42643218 110.3125 183.875 C111.41207031 184.42929688 112.51164063 184.98359375 113.64453125 185.5546875 C124.70038617 190.08624786 136.85358843 189.28811978 148.5637207 189.27124023 C150.58514108 189.27563309 152.60655965 189.28093728 154.62797546 189.28707886 C158.9619946 189.29853229 163.29596515 189.30403481 167.62999916 189.30496025 C174.48378027 189.30690802 181.33746126 189.32499751 188.19120789 189.34571838 C205.20591482 189.39479899 222.22064867 189.42582251 239.2354126 189.44702148 C252.4776746 189.46354035 265.71985002 189.48632099 278.96205395 189.53004223 C285.77535455 189.55182313 292.58849062 189.55987618 299.40182364 189.55764949 C303.63589249 189.55931505 307.86985356 189.57335525 312.10388374 189.59086227 C314.06707222 189.59646511 316.030283 189.59694396 317.99347305 189.59192467 C320.67320785 189.58579125 323.35226117 189.59800016 326.03193665 189.61473083 C327.19676912 189.60541311 327.19676912 189.60541311 328.38513356 189.59590715 C335.37053028 189.6753849 340.53292822 192.16028903 345.5 197 C350.05067271 202.65083534 351.61735138 208.45590098 351.3828125 215.6640625 C350.02175825 224.67294538 344.83644842 233.12060098 340.85498047 241.19482422 C339.06225216 244.90625634 337.45574298 248.66936388 335.9375 252.5 C335.50308594 253.5828125 335.06867188 254.665625 334.62109375 255.78125 C332.35879933 262.27647857 331.20958291 268.27893728 331.0078125 275.14453125 C330.94498388 276.71088224 330.88148053 278.27720629 330.81738281 279.84350586 C330.77127869 281.05972122 330.77127869 281.05972122 330.72424316 282.30050659 C328.73264788 332.71077189 317.70374006 381.7947223 280.0859375 417.75 C258.49906812 437.69426356 226.06522527 452 196.5 452 C196.5 463.55 196.5 475.1 196.5 487 C199.8 487.66 203.1 488.32 206.5 489 C219.69116934 493.286754 219.69116934 493.286754 223.5 499 C224.12491523 502.95779649 224.11006839 505.00863886 222 508.4375 C218.42327332 510.67295417 215.52978658 510.78485205 211.5 510 C209.58443736 509.25734267 207.68940311 508.4605566 205.8125 507.625 C191.36084598 501.26627223 174.63643224 501.50510341 159.91796875 506.96484375 C157.52673733 507.94799251 157.52673733 507.94799251 155.42578125 509.10546875 C152.16607747 510.61961108 149.01096841 510.56837398 145.5 510 C143 508.4375 143 508.4375 141.5 506 C140.82642293 501.88369569 140.92146581 499.86780128 143.25 496.375 C152.53850184 488.50952769 167.65981756 486 179.5 486 C179.5 475.44 179.5 464.88 179.5 454 C174.900625 454.061875 170.30125 454.12375 165.5625 454.1875 C152.29913591 454.26764967 139.45404354 453.35844823 126.32470703 451.38891602 C122.39313117 450.84760224 118.44439253 450.43826584 114.5 450 C110.21 461.88 105.92 473.76 101.5 486 C106.45 487.65 111.4 489.3 116.5 491 C123.83333333 495 123.83333333 495 126.5 499 C126.31959499 502.3675602 126.13894716 504.99113606 124.3125 507.875 C121.44842418 509.65270223 119.94596568 510 116.5 510 C113.76164454 508.92588538 111.18176904 507.6845103 108.57421875 506.32421875 C100.93924735 503.03545724 93.35219595 502.6602215 85.125 502.6875 C84.16078125 502.67138672 83.1965625 502.65527344 82.203125 502.63867188 C73.40154909 502.6327727 65.60243331 504.38499144 57.6875 508.25 C54.80877282 509.58141132 53.44922683 510.00095798 50.1875 510.0625 C46.62826732 508.6553615 45.32869192 507.36479312 43.5 504 C43.375 500.5 43.375 500.5 44.5 497 C54.023354 487.77336771 69.5252603 485.1478735 82.3984375 484.95703125 C83.09195313 484.97121094 83.78546875 484.98539062 84.5 485 C84.71398437 483.83597656 84.92796875 482.67195313 85.1484375 481.47265625 C86.75649453 474.2363996 89.5290984 467.36345057 92.125 460.4375 C92.64636926 459.03340201 93.16720694 457.62910651 93.6875 456.22460938 C94.9522133 452.81410757 96.22409774 449.40633417 97.5 446 C94.96861026 444.31240684 93.31277212 443.49436456 90.5 442.58984375 C62.98699925 433.49783975 38.61052709 420.03502716 17.5 400 C16.97680176 399.51466797 16.45360352 399.02933594 15.91455078 398.52929688 C6.02171016 389.31310943 -2.22776746 379.40486043 -9.5 368 C-9.98645996 367.23864746 -10.47291992 366.47729492 -10.97412109 365.69287109 C-22.00772938 347.83088838 -27.88579804 327.50935518 -34.52633667 307.7412262 C-37.48398089 298.9664317 -40.64545579 290.27431109 -43.85043335 281.5874939 C-48.39947357 269.22403546 -52.85940547 256.93495385 -55.5 244 C-55.65645996 243.29891113 -55.81291992 242.59782227 -55.97412109 241.87548828 C-62.63107804 211.27264304 -59.01499244 178.75198938 -50.5 149 C-51.40709717 148.8302063 -51.40709717 148.8302063 -52.33251953 148.65698242 C-58.56135879 147.40105681 -62.30736314 145.89900502 -66.5 141 C-72.95227761 130.46127991 -70.69058465 116.23658889 -67.97900391 104.80322266 C-67.49654754 102.8661582 -66.9995182 100.93273496 -66.5 99 C-67.09014893 99.01047363 -67.68029785 99.02094727 -68.28833008 99.03173828 C-70.96301004 99.07332044 -73.63762197 99.0993329 -76.3125 99.125 C-77.24126953 99.14175781 -78.17003906 99.15851563 -79.12695312 99.17578125 C-80.01962891 99.18222656 -80.91230469 99.18867187 -81.83203125 99.1953125 C-82.65421143 99.20578613 -83.4763916 99.21625977 -84.32348633 99.22705078 C-86.5 99 -86.5 99 -89.5 97 C-90.35980895 92.31881792 -89.47749846 89.46439131 -87 85.5625 C-82.52012928 79.37752483 -77.87134314 73.54228299 -70.5 71 C-70.5 69.68 -70.5 68.36 -70.5 67 C-71.49 67.103125 -72.48 67.20625 -73.5 67.3125 C-78.42190664 67.29253283 -81.82291163 65.12672156 -85.5 62 C-89.70302736 56.85129149 -90.12534394 52.45776384 -89.88671875 45.875 C-89.16708403 40.52498833 -87.00415039 37.46456748 -83.125 33.6875 C-78.89213585 30.96637305 -75.52616965 30 -70.5 30 C-70.4175 28.80375 -70.335 27.6075 -70.25 26.375 C-69.37528653 19.66098313 -65.46243088 15.39353531 -60.34375 11.26171875 C-54.42784379 7.21333378 -48.22066467 7.76258032 -41.5 9 C-38.375 10.0625 -38.375 10.0625 -36.5 11 C-35.84 9.948125 -35.18 8.89625 -34.5 7.8125 C-26.91266171 -2.87480794 -11.62278784 -5.33681168 0 0 Z " fill="#EEE1DC" transform="translate(125.5,2)"/>
<path d="M0 0 C3.87485635 -0.08751413 7.74945643 -0.14056435 11.625 -0.1875 C13.26662109 -0.22520508 13.26662109 -0.22520508 14.94140625 -0.26367188 C20.73036879 -0.31629881 25.01970899 -0.31747699 30 3 C30.845625 3.53625 31.69125 4.0725 32.5625 4.625 C37.69873639 9.62953802 40.32546325 14.87036138 41 22.0625 C40.65667746 32.61394604 34.93169356 41.91347281 30.35498047 51.19482422 C28.56225216 54.90625634 26.95574298 58.66936388 25.4375 62.5 C25.00308594 63.5828125 24.56867188 64.665625 24.12109375 65.78125 C21.85879933 72.27647857 20.70958291 78.27893728 20.5078125 85.14453125 C20.44498388 86.71088224 20.38148053 88.27720629 20.31738281 89.84350586 C20.27127869 91.05972122 20.27127869 91.05972122 20.22424316 92.30050659 C18.23264788 142.71077189 7.20374006 191.7947223 -30.4140625 227.75 C-52.00093188 247.69426356 -84.43477473 262 -114 262 C-114 273.55 -114 285.1 -114 297 C-110.7 297.66 -107.4 298.32 -104 299 C-90.80883066 303.286754 -90.80883066 303.286754 -87 309 C-86.37508477 312.95779649 -86.38993161 315.00863886 -88.5 318.4375 C-92.07672668 320.67295417 -94.97021342 320.78485205 -99 320 C-100.91556264 319.25734267 -102.81059689 318.4605566 -104.6875 317.625 C-119.13915402 311.26627223 -135.86356776 311.50510341 -150.58203125 316.96484375 C-152.97326267 317.94799251 -152.97326267 317.94799251 -155.07421875 319.10546875 C-158.33392253 320.61961108 -161.48903159 320.56837398 -165 320 C-167.5 318.4375 -167.5 318.4375 -169 316 C-169.67357707 311.88369569 -169.57853419 309.86780128 -167.25 306.375 C-157.96149816 298.50952769 -142.84018244 296 -131 296 C-131 285.44 -131 274.88 -131 264 C-135.599375 264.061875 -140.19875 264.12375 -144.9375 264.1875 C-158.20086409 264.26764967 -171.04595646 263.35844823 -184.17529297 261.38891602 C-188.10686883 260.84760224 -192.05560747 260.43826584 -196 260 C-202.435 277.82 -202.435 277.82 -209 296 C-204.05 297.65 -199.1 299.3 -194 301 C-186.66666667 305 -186.66666667 305 -184 309 C-184.18040501 312.3675602 -184.36105284 314.99113606 -186.1875 317.875 C-189.05157582 319.65270223 -190.55403432 320 -194 320 C-196.73835546 318.92588538 -199.31823096 317.6845103 -201.92578125 316.32421875 C-209.56075265 313.03545724 -217.14780405 312.6602215 -225.375 312.6875 C-226.82132813 312.66333008 -226.82132813 312.66333008 -228.296875 312.63867188 C-237.09845091 312.6327727 -244.89756669 314.38499144 -252.8125 318.25 C-255.69122718 319.58141132 -257.05077317 320.00095798 -260.3125 320.0625 C-263.87173268 318.6553615 -265.17130808 317.36479312 -267 314 C-267.125 310.5 -267.125 310.5 -266 307 C-256.476646 297.77336771 -240.9747397 295.1478735 -228.1015625 294.95703125 C-227.40804687 294.97121094 -226.71453125 294.98539062 -226 295 C-225.78601563 293.83597656 -225.57203125 292.67195313 -225.3515625 291.47265625 C-223.74350547 284.2363996 -220.9709016 277.36345057 -218.375 270.4375 C-217.85363074 269.03340201 -217.33279306 267.62910651 -216.8125 266.22460938 C-215.5477867 262.81410757 -214.27590226 259.40633417 -213 256 C-215.53138974 254.31240684 -217.18722788 253.49436456 -220 252.58984375 C-247.51300075 243.49783975 -271.88947291 230.03502716 -293 210 C-293.52319824 209.51466797 -294.04639648 209.02933594 -294.58544922 208.52929688 C-306.86394529 197.09062868 -318.56813196 183.70480664 -325 168 C-321.32553851 169.58337451 -318.68794062 171.8772082 -315.6875 174.5 C-271.6270218 211.91357022 -210.23779999 223.91361467 -153.84765625 219.5 C-114.40947223 215.85164322 -76.50207455 201.42157748 -50.62109375 170.34423828 C-23.33150245 135.87585525 -15.70254 92.71616846 -13.97094727 49.92504883 C-13.49246827 38.42539642 -12.30646253 27.60432234 -7.625 16.9375 C-7.20089844 15.96167969 -6.77679688 14.98585937 -6.33984375 13.98046875 C-5.67662109 12.50513672 -5.67662109 12.50513672 -5 11 C-4.29037109 9.41638672 -4.29037109 9.41638672 -3.56640625 7.80078125 C-2.38871863 5.1951891 -1.19766524 2.59644074 0 0 Z " fill="#E1D3CE" transform="translate(436,192)"/>
<path d="M0 0 C0.97807114 -0.0065712 1.95614227 -0.0131424 2.96385193 -0.01991272 C6.18985074 -0.03956841 9.41580317 -0.05129111 12.6418457 -0.0612793 C13.74793497 -0.06535482 14.85402424 -0.06943035 15.99363136 -0.07362938 C21.84829138 -0.09445721 27.70292819 -0.10877313 33.55761719 -0.11816406 C39.58528129 -0.12922139 45.61257554 -0.1636234 51.64010906 -0.20333576 C56.29259398 -0.22955442 60.94499143 -0.23786058 65.59754372 -0.24144554 C67.81855581 -0.24629789 70.03956435 -0.25787298 72.26050377 -0.27648354 C99.91836499 -0.49384167 99.91836499 -0.49384167 111.13012695 10.17700195 C118.62124731 18.3831838 120.67918928 25.71685317 120.41918945 36.7668457 C119.55143949 47.00394997 114.58500709 54.09360051 107.38012695 61.11450195 C106.84572998 61.64172852 106.31133301 62.16895508 105.76074219 62.7121582 C102.37930098 66.02475692 98.91677263 69.20735595 95.3137207 72.27856445 C92.40354395 74.80870024 89.58213409 77.42965581 86.75512695 80.05200195 C81.25874325 85.14507548 75.71309947 90.17882525 70.13012695 95.17700195 C65.25213486 99.55064592 60.38475883 103.93429938 55.56298828 108.36987305 C54.02391351 109.78473163 52.48180028 111.19620078 50.9387207 112.60668945 C49.27873974 114.12583754 47.62319243 115.6498955 45.9777832 117.18481445 C32.51455036 129.46416384 16.25225798 136.8007051 -2.05737305 136.67700195 C-3.05551025 136.67128174 -4.05364746 136.66556152 -5.08203125 136.65966797 C-23.6596788 136.21624104 -38.78488886 128.21778012 -51.86987305 115.17700195 C-52.95268555 114.12899414 -52.95268555 114.12899414 -54.05737305 113.05981445 C-59.7424203 107.18095877 -62.9420766 100.76501878 -65.86987305 93.17700195 C-66.28495117 92.1302832 -66.7000293 91.08356445 -67.12768555 90.00512695 C-73.16781491 72.34936419 -70.83259525 53.67508408 -63.18237305 36.98950195 C-54.39747375 20.39334458 -39.70369432 8.36479872 -21.86987305 2.73950195 C-14.50169819 0.64370732 -7.61793161 0.02238866 0 0 Z " fill="#E0D2CE" transform="translate(261.869873046875,217.822998046875)"/>
<path d="M0 0 C8.42484748 4.12645591 14.15732346 10.24640269 17.34375 19.16015625 C19.66019386 29.18429127 18.58137236 39.1083227 13.25 47.87890625 C10.82595567 51.24142608 8.20940611 54.05366319 5.25 56.9375 C4.71560303 57.46472656 4.18120605 57.99195313 3.63061523 58.53515625 C0.24917403 61.84775496 -3.21335432 65.030354 -6.81640625 68.1015625 C-9.72658301 70.63169829 -12.54799286 73.25265386 -15.375 75.875 C-20.8713837 80.96807353 -26.41702748 86.00182329 -32 91 C-36.8779921 95.37364396 -41.74536812 99.75729743 -46.56713867 104.19287109 C-48.10621344 105.60772967 -49.64832667 107.01919883 -51.19140625 108.4296875 C-52.85138721 109.94883559 -54.50693452 111.47289355 -56.15234375 113.0078125 C-69.61557659 125.28716188 -85.87786898 132.62370314 -104.1875 132.5 C-105.18563721 132.49427979 -106.18377441 132.48855957 -107.2121582 132.48266602 C-125.72098471 132.04088176 -141.01875071 124.092964 -154 111 C-156.41122527 108.39397197 -158.74411884 105.74141849 -161 103 C-160.505 102.01 -160.505 102.01 -160 101 C-159.39414063 101.38671875 -158.78828125 101.7734375 -158.1640625 102.171875 C-142.67192634 111.80083348 -124.68796739 116.13820521 -106.49560547 112.49902344 C-92.20030256 108.79272771 -81.70707654 102.05117947 -71 92 C-69.7140523 90.86846728 -68.42268783 89.74304923 -67.125 88.625 C-63.2084976 85.21385274 -59.3849239 81.70407347 -55.56298828 78.18798828 C-51.59164122 74.53584525 -47.58643245 70.92319824 -43.5703125 67.3203125 C-40.65571553 64.68920217 -37.76460776 62.03347525 -34.875 59.375 C-31.63786909 56.3977736 -28.38862144 53.44047034 -25.0625 50.5625 C-8.43357899 37.2982182 -8.43357899 37.2982182 1 19 C1.42837101 12.53477089 1.18628536 6.37150041 0 0 Z " fill="#CDBFBA" transform="translate(364,222)"/>
<path d="M0 0 C7.02509001 4.1612846 11.89481398 9.79705426 14.0625 17.72265625 C15.60714251 25.76307217 14.32214338 32.7283456 10.5 40 C8.17679034 43.11863009 5.84980514 45.97888852 2.5 48 C-0.71112846 47.73449328 -3.5007728 46.69306806 -6.5 45.5625 C-16.7778321 42.09015408 -27.55034352 41.63714005 -38.3125 41.625 C-39.47458984 41.60050781 -40.63667969 41.57601562 -41.83398438 41.55078125 C-49.96802016 41.52303582 -55.25007307 42.70554226 -61.671875 47.68359375 C-66.82424126 53.40986219 -68.68338589 59.59814375 -70.5 67 C-75.96571945 67.56934578 -79.17615756 66.69300151 -83.69921875 63.53125 C-87.66936529 60.15533364 -89.21690044 57.16748102 -89.875 52.12890625 C-90.13888302 45.52358442 -89.55375944 41.25893116 -85.5 36 C-81.01759359 31.63555165 -76.73380961 30 -70.5 30 C-70.4175 28.80375 -70.335 27.6075 -70.25 26.375 C-69.37528653 19.66098313 -65.46243088 15.39353531 -60.34375 11.26171875 C-54.42784379 7.21333378 -48.22066467 7.76258032 -41.5 9 C-38.375 10.0625 -38.375 10.0625 -36.5 11 C-35.84 9.948125 -35.18 8.89625 -34.5 7.8125 C-26.91266171 -2.87480794 -11.62278784 -5.33681168 0 0 Z " fill="#FE5426" transform="translate(125.5,2)"/>
<path d="M0 0 C2.99331142 2.20342841 3.89773129 3.41707748 4.54589844 7.11157227 C4.5668457 8.33416748 4.58779297 9.5567627 4.609375 10.81640625 C4.63424736 11.83204147 4.63424736 11.83204147 4.65962219 12.86819458 C4.70894537 15.09972497 4.72986545 17.33053073 4.75 19.5625 C4.77785064 21.11371326 4.80708579 22.66490222 4.83764648 24.21606445 C5.13408431 40.80734901 5.09908569 57.40695765 5 74 C5.64864014 74.11754639 6.29728027 74.23509277 6.96557617 74.35620117 C15.0444836 75.8841181 23.84388402 77.87626589 30.25 83.375 C32.57853419 86.86780128 32.67357707 88.88369569 32 93 C30.5 95.4375 30.5 95.4375 28 97 C22.59167048 97.86919582 19.28148535 96.83708463 14.3125 94.625 C-0.13915402 88.26627223 -16.86356776 88.50510341 -31.58203125 93.96484375 C-33.97326267 94.94799251 -33.97326267 94.94799251 -36.07421875 96.10546875 C-39.33392253 97.61961108 -42.48903159 97.56837398 -46 97 C-48.5 95.4375 -48.5 95.4375 -50 93 C-50.67357707 88.88369569 -50.57853419 86.86780128 -48.25 83.375 C-39.05214291 75.58628536 -23.7832005 72.84460881 -12 73 C-12.00523682 72.22438721 -12.01047363 71.44877441 -12.01586914 70.6496582 C-12.07279187 60.7659992 -12.06296531 50.88359414 -12 41 C-11.99482361 40.16684265 -11.98964722 39.3336853 -11.98431396 38.47528076 C-11.94850881 33.3888853 -11.88564411 28.30376403 -11.79147339 23.21810913 C-11.76388223 21.57614057 -11.74312159 19.93404265 -11.72927856 18.29190063 C-11.70812065 15.98028863 -11.66188623 13.67045932 -11.609375 11.359375 C-11.60752449 10.3285807 -11.60752449 10.3285807 -11.6056366 9.27696228 C-11.50407377 5.98858354 -11.17386342 4.23209786 -9.18066406 1.57128906 C-5.98700155 -0.72992141 -3.83539592 -0.5479137 0 0 Z " fill="#FED500" transform="translate(317,415)"/>
<path d="M0 0 C5.42814211 0.56543147 10.6891831 1.77022843 16 3 C13.63799338 11.34064573 10.75494383 19.47460791 7.8125 27.625 C7.34416219 28.92829961 6.87606163 30.2316845 6.40820312 31.53515625 C5.27445598 34.69094727 4.1383377 37.8458626 3 41 C3.99 41.30292969 4.98 41.60585938 6 41.91796875 C23.63945473 47.4591821 23.63945473 47.4591821 28 54 C27.81959499 57.3675602 27.63894716 59.99113606 25.8125 62.875 C22.94842418 64.65270223 21.44596568 65 18 65 C15.26164454 63.92588538 12.68176904 62.6845103 10.07421875 61.32421875 C2.43924735 58.03545724 -5.14780405 57.6602215 -13.375 57.6875 C-14.82132813 57.66333008 -14.82132813 57.66333008 -16.296875 57.63867188 C-25.09845091 57.6327727 -32.89756669 59.38499144 -40.8125 63.25 C-43.69122718 64.58141132 -45.05077317 65.00095798 -48.3125 65.0625 C-51.87173268 63.6553615 -53.17130808 62.36479312 -55 59 C-55.125 55.5 -55.125 55.5 -54 52 C-44.476646 42.77336771 -28.9747397 40.1478735 -16.1015625 39.95703125 C-15.40804687 39.97121094 -14.71453125 39.98539062 -14 40 C-13.78472656 38.8346875 -13.56945312 37.669375 -13.34765625 36.46875 C-11.90175087 29.96663455 -9.52565384 23.78660295 -7.2043457 17.55859375 C-6.42966713 15.4789727 -5.66441053 13.39605762 -4.90039062 11.3125 C-1.14870046 1.14870046 -1.14870046 1.14870046 0 0 Z " fill="#FED500" transform="translate(224,447)"/>
<path d="M0 0 C2.12768266 2.12768266 2.48116435 3.22514009 3.4375 6 C7.73761509 15.88077917 18.60885178 22.39847092 27.0546875 28.67578125 C28.02664062 29.44277344 28.99859375 30.20976563 30 31 C31.45792969 32.13501953 31.45792969 32.13501953 32.9453125 33.29296875 C35 36 35 36 34.78051758 39.72119141 C34.15512761 43.72224905 32.98765947 47.37115167 31.56640625 51.16796875 C31.32840805 51.81067215 31.09040985 52.45337555 30.84519958 53.11555481 C30.09233201 55.14264109 29.32761622 57.16500973 28.5625 59.1875 C28.0532582 60.55374663 27.54478839 61.92028126 27.03710938 63.28710938 C25.07821954 68.54635366 23.10352534 73.79654259 21 79 C13.88075365 78.50901749 9.74057641 76.96895778 4.75 71.5625 C-1.55529279 62.32974985 -0.32674898 50.92558563 1.33203125 40.38671875 C2.08920773 36.54770115 3.02092423 32.7882383 4 29 C3.11477661 29.01571045 3.11477661 29.01571045 2.21166992 29.03173828 C-0.46301004 29.07332044 -3.13762197 29.0993329 -5.8125 29.125 C-6.74126953 29.14175781 -7.67003906 29.15851563 -8.62695312 29.17578125 C-9.51962891 29.18222656 -10.41230469 29.18867187 -11.33203125 29.1953125 C-12.15421143 29.20578613 -12.9763916 29.21625977 -13.82348633 29.22705078 C-16 29 -16 29 -19 27 C-19.85980895 22.31881792 -18.97749846 19.46439131 -16.5 15.5625 C-12.05840135 9.41986357 -6.86979948 3.43489974 0 0 Z " fill="#FE5325" transform="translate(55,72)"/>
<path d="M0 0 C10.57150591 -0.63429035 18.75253322 -0.45319681 27.05859375 6.796875 C32.47946866 12.4318801 34.99370767 18.59476565 35.4375 26.375 C35.04046885 35.47495402 31.41426553 42.35497636 25.09765625 48.734375 C23 50 23 50 20.546875 49.80078125 C19.70640625 49.53652344 18.8659375 49.27226563 18 49 C17.18917969 48.75121094 16.37835938 48.50242188 15.54296875 48.24609375 C14.76566406 47.97925781 13.98835938 47.71242187 13.1875 47.4375 C12.39730469 47.16808594 11.60710937 46.89867187 10.79296875 46.62109375 C10.20128906 46.41613281 9.60960938 46.21117187 9 46 C9.99101932 44.00010516 10.99091645 42.01644322 12.0703125 40.0625 C15.62546422 33.1102033 16.09915468 26.34134672 14.52734375 18.703125 C12.38911994 12.09639753 8.11319892 7.01723015 2.125 3.5625 C1.09375 3.046875 0.0625 2.53125 -1 2 C-0.67 1.34 -0.34 0.68 0 0 Z " fill="#F04424" transform="translate(105,0)"/>
<path d="M0 0 C2.12768266 2.12768266 2.48116435 3.22514009 3.4375 6 C7.34008698 15.05749666 16.71390515 20.9884583 24.41796875 26.72265625 C25.20107422 27.35494141 25.20107422 27.35494141 26 28 C26 28.33 26 28.66 26 29 C20.07349874 29.04939701 14.14711703 29.08571817 8.22045898 29.10986328 C6.20383619 29.11992773 4.18722801 29.13358047 2.1706543 29.15087891 C-0.72611089 29.17510769 -3.62268331 29.18647859 -6.51953125 29.1953125 C-7.87435356 29.21079636 -7.87435356 29.21079636 -9.25654602 29.22659302 C-10.5175135 29.22681961 -10.5175135 29.22681961 -11.80395508 29.22705078 C-12.91315056 29.23371262 -12.91315056 29.23371262 -14.04475403 29.24050903 C-16 29 -16 29 -19 27 C-19.85980895 22.31881792 -18.97749846 19.46439131 -16.5 15.5625 C-12.05840135 9.41986357 -6.86979948 3.43489974 0 0 Z " fill="#FBC701" transform="translate(55,72)"/>
<path d="M0 0 C2.89657136 -0.24054572 4.53690459 -0.28173105 7.0546875 1.25 C7.65539062 1.8275 8.25609375 2.405 8.875 3 C9.79925781 3.8353125 9.79925781 3.8353125 10.7421875 4.6875 C12.61503231 8.13074264 11.71931018 11.29836532 11 15 C10.26461296 17.41373403 9.45099317 19.80483269 8.56640625 22.16796875 C8.32840805 22.81067215 8.09040985 23.45337555 7.84519958 24.11555481 C7.09233201 26.14264109 6.32761622 28.16500973 5.5625 30.1875 C5.0532582 31.55374663 4.54478839 32.92028126 4.03710938 34.28710938 C2.07821954 39.54635366 0.10352534 44.79654259 -2 50 C-7.76624693 49.6023278 -11.48563696 48.95006766 -16 45 C-16 43.68 -16 42.36 -16 41 C-14.80375 40.773125 -13.6075 40.54625 -12.375 40.3125 C-6.67418181 38.85954811 -3.24215475 36.05598028 -0.1875 31 C3.44698681 20.98352743 1.85057974 10.20112963 0 0 Z " fill="#F04626" transform="translate(78,101)"/>
<path d="M0 0 C2.12725776 2.12725776 2.76611081 3.61652357 3.875 6.375 C5.41736979 9.97579563 6.92018249 12.4701499 10 15 C9 18 9 18 7 19 C5.1136088 19.084915 3.22421485 19.107193 1.3359375 19.09765625 C0.21445312 19.09443359 -0.90703125 19.09121094 -2.0625 19.08789062 C-3.238125 19.07951172 -4.41375 19.07113281 -5.625 19.0625 C-6.80835938 19.05798828 -7.99171875 19.05347656 -9.2109375 19.04882812 C-12.14067507 19.03701467 -15.07031272 19.02054258 -18 19 C-15.56941556 14.48054595 -13.26208621 10.86623331 -9.5625 7.25 C-8.82128906 6.51265625 -8.08007812 5.7753125 -7.31640625 5.015625 C-5.00277761 3.00241694 -2.67403754 1.49029253 0 0 Z " fill="#FED402" transform="translate(55,72)"/>
<path d="M0 0 C3.34903861 1.23768818 4.85279734 2.10697303 6.875 5.0625 C7.43302097 8.96864682 7.45892818 11.11361671 5.375 14.5 C2.34313683 16.39491448 0.31419544 16.70286692 -3.21875 16.51171875 C-5.125 16.0625 -5.125 16.0625 -7.625 13.9375 C-9.41452585 10.50757546 -9.91735586 8.86580813 -9.125 5.0625 C-6.16174116 1.74647225 -4.52716343 0.09054327 0 0 Z " fill="#5A535A" transform="translate(94.125,63.9375)"/>
</svg>
